<svg xmlns="http://www.w3.org/2000/svg" viewBox="0 0 800 320" width="800" height="320" fill="none">
  <defs>
    <linearGradient id="bg4" x1="0" y1="0" x2="1" y2="1">
      <stop offset="0%" stop-color="#0f172a"/>
      <stop offset="100%" stop-color="#1e293b"/>
    </linearGradient>
    <linearGradient id="cyan4" x1="0" y1="0" x2="1" y2="0">
      <stop offset="0%" stop-color="#06b6d4"/>
      <stop offset="100%" stop-color="#22d3ee"/>
    </linearGradient>
    <linearGradient id="purple4" x1="0" y1="0" x2="1" y2="0">
      <stop offset="0%" stop-color="#8b5cf6"/>
      <stop offset="100%" stop-color="#a78bfa"/>
    </linearGradient>
    <linearGradient id="green4" x1="0" y1="0" x2="1" y2="0">
      <stop offset="0%" stop-color="#10b981"/>
      <stop offset="100%" stop-color="#34d399"/>
    </linearGradient>
  </defs>
  <rect width="800" height="320" rx="12" fill="url(#bg4)"/>
  <rect x="0.5" y="0.5" width="799" height="319" rx="12" stroke="#334155" stroke-width="1" fill="none"/>

  <!-- Terminal window -->
  <rect x="40" y="30" width="340" height="260" rx="8" fill="#020617" stroke="#334155" stroke-width="1"/>
  <circle cx="58" cy="48" r="5" fill="#ef4444" opacity="0.7"/>
  <circle cx="74" cy="48" r="5" fill="#eab308" opacity="0.7"/>
  <circle cx="90" cy="48" r="5" fill="#22c55e" opacity="0.7"/>

  <!-- Code lines -->
  <text x="56" y="82" font-family="JetBrains Mono, monospace" font-size="11" fill="#8b5cf6">from</text>
  <text x="88" y="82" font-family="JetBrains Mono, monospace" font-size="11" fill="#22d3ee">vectrix</text>
  <text x="153" y="82" font-family="JetBrains Mono, monospace" font-size="11" fill="#8b5cf6">import</text>
  <text x="196" y="82" font-family="JetBrains Mono, monospace" font-size="11" fill="#22d3ee">forecast</text>

  <text x="56" y="110" font-family="JetBrains Mono, monospace" font-size="11" fill="#94a3b8">result = </text>
  <text x="121" y="110" font-family="JetBrains Mono, monospace" font-size="11" fill="#fbbf24">forecast</text>
  <text x="177" y="110" font-family="JetBrains Mono, monospace" font-size="11" fill="#94a3b8">(data, steps=</text>
  <text x="275" y="110" font-family="JetBrains Mono, monospace" font-size="11" fill="#f472b6">12</text>
  <text x="289" y="110" font-family="JetBrains Mono, monospace" font-size="11" fill="#94a3b8">)</text>

  <text x="56" y="148" font-family="JetBrains Mono, monospace" font-size="10" fill="#475569"># Best model: DynamicOptimizedTheta</text>
  <text x="56" y="166" font-family="JetBrains Mono, monospace" font-size="10" fill="#475569"># MAPE: 4.23%</text>
  <text x="56" y="184" font-family="JetBrains Mono, monospace" font-size="10" fill="#475569"># Compared 30+ models automatically</text>

  <!-- Checkmark -->
  <circle cx="68" cy="220" r="12" fill="none" stroke="#10b981" stroke-width="2"/>
  <polyline points="60,220 66,226 78,214" stroke="#10b981" stroke-width="2" stroke-linecap="round" stroke-linejoin="round" fill="none"/>
  <text x="88" y="224" font-family="JetBrains Mono, monospace" font-size="11" fill="#10b981">Done in 0.8 seconds</text>

  <!-- Arrow -->
  <line x1="400" y1="160" x2="430" y2="160" stroke="#475569" stroke-width="2"/>
  <polyline points="425,154 433,160 425,166" stroke="#475569" stroke-width="2" stroke-linecap="round" stroke-linejoin="round" fill="none"/>

  <!-- Chart area -->
  <rect x="450" y="30" width="320" height="260" rx="8" fill="#020617" stroke="#334155" stroke-width="1"/>

  <!-- Mini grid -->
  <line x1="480" y1="240" x2="740" y2="240" stroke="#1e293b" stroke-width="1"/>
  <line x1="480" y1="200" x2="740" y2="200" stroke="#1e293b" stroke-width="1"/>
  <line x1="480" y1="160" x2="740" y2="160" stroke="#1e293b" stroke-width="1"/>
  <line x1="480" y1="120" x2="740" y2="120" stroke="#1e293b" stroke-width="1"/>
  <line x1="480" y1="80" x2="740" y2="80" stroke="#1e293b" stroke-width="1"/>

  <!-- Historical line -->
  <polyline points="480,220 500,210 520,195 540,200 560,180 580,175 600,185 620,165 640,160" stroke="url(#cyan4)" stroke-width="2" stroke-linecap="round" stroke-linejoin="round" fill="none"/>

  <!-- Divider -->
  <line x1="640" y1="60" x2="640" y2="250" stroke="#8b5cf6" stroke-width="1" stroke-dasharray="4,4" opacity="0.5"/>

  <!-- Confidence band -->
  <path d="M640,160 L660,148 L680,138 L700,128 L720,118 L740,110 L740,170 L720,168 L700,162 L680,158 L660,162 L640,160 Z" fill="rgba(139,92,246,0.1)" stroke="none"/>

  <!-- Forecast line -->
  <polyline points="640,160 660,152 680,146 700,140 720,134 740,128" stroke="url(#purple4)" stroke-width="2" stroke-linecap="round" stroke-linejoin="round" stroke-dasharray="6,3" fill="none"/>

  <!-- Labels -->
  <text x="560" y="55" text-anchor="middle" font-family="Inter, system-ui, sans-serif" font-size="10" font-weight="600" fill="#06b6d4">HISTORICAL</text>
  <text x="690" y="55" text-anchor="middle" font-family="Inter, system-ui, sans-serif" font-size="10" font-weight="600" fill="#8b5cf6">FORECAST</text>
  <text x="595" y="272" text-anchor="middle" font-family="Inter, system-ui, sans-serif" font-size="10" fill="#475569">One line of code → Full forecast</text>
</svg>