<svg xmlns="http://www.w3.org/2000/svg" viewBox="0 0 800 420">
  <defs>
    <linearGradient id="bg8" x1="0" y1="0" x2="0" y2="1">
      <stop offset="0%" stop-color="#0f172a"/>
      <stop offset="100%" stop-color="#1e293b"/>
    </linearGradient>
  </defs>
  <rect width="800" height="420" fill="url(#bg8)" rx="12"/>

  <!-- Title -->
  <text x="400" y="28" text-anchor="middle" fill="#f1f5f9" font-family="Inter,sans-serif" font-size="14" font-weight="600">Forecasting Model Families</text>

  <!-- Row 1: Smoothing Family -->
  <rect x="20" y="50" width="110" height="45" rx="6" fill="#6366f1" opacity="0.15" stroke="#6366f1" stroke-width="1.5"/>
  <text x="75" y="68" text-anchor="middle" fill="#6366f1" font-family="Inter,sans-serif" font-size="11" font-weight="700">Smoothing</text>
  <text x="75" y="82" text-anchor="middle" fill="#94a3b8" font-family="Inter,sans-serif" font-size="9">weighted avg</text>

  <line x1="130" y1="72" x2="155" y2="55" stroke="#6366f1" stroke-width="1" opacity="0.5"/>
  <line x1="130" y1="72" x2="155" y2="72" stroke="#6366f1" stroke-width="1" opacity="0.5"/>
  <line x1="130" y1="72" x2="155" y2="90" stroke="#6366f1" stroke-width="1" opacity="0.5"/>

  <rect x="155" y="42" width="85" height="26" rx="4" fill="#1e293b" stroke="#6366f1" stroke-width="1"/>
  <text x="197" y="59" text-anchor="middle" fill="#f1f5f9" font-family="Inter,sans-serif" font-size="10">AutoETS</text>

  <rect x="155" y="72" width="85" height="26" rx="4" fill="#1e293b" stroke="#6366f1" stroke-width="1"/>
  <text x="197" y="89" text-anchor="middle" fill="#f1f5f9" font-family="Inter,sans-serif" font-size="10">AutoCES</text>

  <rect x="260" y="42" width="70" height="26" rx="4" fill="#6366f1" opacity="0.1" stroke="#6366f1" stroke-width="0.5"/>
  <text x="295" y="59" text-anchor="middle" fill="#94a3b8" font-family="Inter,sans-serif" font-size="9">18 types</text>

  <rect x="260" y="72" width="70" height="26" rx="4" fill="#6366f1" opacity="0.1" stroke="#6366f1" stroke-width="0.5"/>
  <text x="295" y="89" text-anchor="middle" fill="#94a3b8" font-family="Inter,sans-serif" font-size="9">complex</text>

  <!-- Row 2: Theta Family -->
  <rect x="20" y="120" width="110" height="45" rx="6" fill="#a855f7" opacity="0.15" stroke="#a855f7" stroke-width="1.5"/>
  <text x="75" y="138" text-anchor="middle" fill="#a855f7" font-family="Inter,sans-serif" font-size="11" font-weight="700">Theta</text>
  <text x="75" y="152" text-anchor="middle" fill="#94a3b8" font-family="Inter,sans-serif" font-size="9">curvature ctrl</text>

  <line x1="130" y1="142" x2="155" y2="125" stroke="#a855f7" stroke-width="1" opacity="0.5"/>
  <line x1="130" y1="142" x2="155" y2="142" stroke="#a855f7" stroke-width="1" opacity="0.5"/>
  <line x1="130" y1="142" x2="155" y2="160" stroke="#a855f7" stroke-width="1" opacity="0.5"/>

  <rect x="155" y="112" width="85" height="26" rx="4" fill="#1e293b" stroke="#a855f7" stroke-width="1"/>
  <text x="197" y="129" text-anchor="middle" fill="#f1f5f9" font-family="Inter,sans-serif" font-size="10">Theta</text>

  <rect x="155" y="142" width="85" height="26" rx="4" fill="#1e293b" stroke="#a855f7" stroke-width="1.5"/>
  <text x="197" y="159" text-anchor="middle" fill="#f1f5f9" font-family="Inter,sans-serif" font-size="10" font-weight="600">DOT</text>

  <rect x="155" y="172" width="85" height="26" rx="4" fill="#1e293b" stroke="#a855f7" stroke-width="1"/>
  <text x="197" y="189" text-anchor="middle" fill="#f1f5f9" font-family="Inter,sans-serif" font-size="10">FourTheta</text>

  <rect x="260" y="112" width="70" height="26" rx="4" fill="#a855f7" opacity="0.1" stroke="#a855f7" stroke-width="0.5"/>
  <text x="295" y="129" text-anchor="middle" fill="#94a3b8" font-family="Inter,sans-serif" font-size="9">M3 win</text>

  <rect x="260" y="142" width="70" height="26" rx="4" fill="#a855f7" opacity="0.1" stroke="#a855f7" stroke-width="0.5"/>
  <text x="295" y="159" text-anchor="middle" fill="#94a3b8" font-family="Inter,sans-serif" font-size="9">OWA 0.848</text>

  <rect x="260" y="172" width="70" height="26" rx="4" fill="#a855f7" opacity="0.1" stroke="#a855f7" stroke-width="0.5"/>
  <text x="295" y="189" text-anchor="middle" fill="#94a3b8" font-family="Inter,sans-serif" font-size="9">4-line ens</text>

  <!-- Row 3: ARIMA -->
  <rect x="20" y="215" width="110" height="45" rx="6" fill="#22c55e" opacity="0.15" stroke="#22c55e" stroke-width="1.5"/>
  <text x="75" y="233" text-anchor="middle" fill="#22c55e" font-family="Inter,sans-serif" font-size="11" font-weight="700">ARIMA</text>
  <text x="75" y="247" text-anchor="middle" fill="#94a3b8" font-family="Inter,sans-serif" font-size="9">autocorrelation</text>

  <line x1="130" y1="237" x2="155" y2="237" stroke="#22c55e" stroke-width="1" opacity="0.5"/>

  <rect x="155" y="224" width="85" height="26" rx="4" fill="#1e293b" stroke="#22c55e" stroke-width="1"/>
  <text x="197" y="241" text-anchor="middle" fill="#f1f5f9" font-family="Inter,sans-serif" font-size="10">AutoARIMA</text>

  <rect x="260" y="224" width="70" height="26" rx="4" fill="#22c55e" opacity="0.1" stroke="#22c55e" stroke-width="0.5"/>
  <text x="295" y="241" text-anchor="middle" fill="#94a3b8" font-family="Inter,sans-serif" font-size="9">(p,d,q)</text>

  <!-- Row 4: Multi-Seasonal -->
  <rect x="380" y="50" width="110" height="45" rx="6" fill="#38bdf8" opacity="0.15" stroke="#38bdf8" stroke-width="1.5"/>
  <text x="435" y="68" text-anchor="middle" fill="#38bdf8" font-family="Inter,sans-serif" font-size="11" font-weight="700">Multi-Season</text>
  <text x="435" y="82" text-anchor="middle" fill="#94a3b8" font-family="Inter,sans-serif" font-size="9">Fourier/STL</text>

  <line x1="490" y1="72" x2="515" y2="60" stroke="#38bdf8" stroke-width="1" opacity="0.5"/>
  <line x1="490" y1="72" x2="515" y2="82" stroke="#38bdf8" stroke-width="1" opacity="0.5"/>

  <rect x="515" y="47" width="85" height="26" rx="4" fill="#1e293b" stroke="#38bdf8" stroke-width="1"/>
  <text x="557" y="64" text-anchor="middle" fill="#f1f5f9" font-family="Inter,sans-serif" font-size="10">TBATS</text>

  <rect x="515" y="77" width="85" height="26" rx="4" fill="#1e293b" stroke="#38bdf8" stroke-width="1"/>
  <text x="557" y="94" text-anchor="middle" fill="#f1f5f9" font-family="Inter,sans-serif" font-size="10">MSTL</text>

  <!-- Row 5: Specialists -->
  <rect x="380" y="120" width="110" height="45" rx="6" fill="#f59e0b" opacity="0.15" stroke="#f59e0b" stroke-width="1.5"/>
  <text x="435" y="138" text-anchor="middle" fill="#f59e0b" font-family="Inter,sans-serif" font-size="11" font-weight="700">Specialists</text>
  <text x="435" y="152" text-anchor="middle" fill="#94a3b8" font-family="Inter,sans-serif" font-size="9">domain-specific</text>

  <line x1="490" y1="142" x2="515" y2="125" stroke="#f59e0b" stroke-width="1" opacity="0.5"/>
  <line x1="490" y1="142" x2="515" y2="142" stroke="#f59e0b" stroke-width="1" opacity="0.5"/>
  <line x1="490" y1="142" x2="515" y2="160" stroke="#f59e0b" stroke-width="1" opacity="0.5"/>

  <rect x="515" y="112" width="85" height="26" rx="4" fill="#1e293b" stroke="#f59e0b" stroke-width="1"/>
  <text x="557" y="129" text-anchor="middle" fill="#f1f5f9" font-family="Inter,sans-serif" font-size="10">GARCH</text>

  <rect x="515" y="142" width="85" height="26" rx="4" fill="#1e293b" stroke="#f59e0b" stroke-width="1"/>
  <text x="557" y="159" text-anchor="middle" fill="#f1f5f9" font-family="Inter,sans-serif" font-size="10">Croston</text>

  <rect x="515" y="172" width="85" height="26" rx="4" fill="#1e293b" stroke="#f59e0b" stroke-width="1"/>
  <text x="557" y="189" text-anchor="middle" fill="#f1f5f9" font-family="Inter,sans-serif" font-size="10">ESN</text>

  <rect x="620" y="112" width="85" height="26" rx="4" fill="#f59e0b" opacity="0.1" stroke="#f59e0b" stroke-width="0.5"/>
  <text x="662" y="129" text-anchor="middle" fill="#94a3b8" font-family="Inter,sans-serif" font-size="9">volatility</text>

  <rect x="620" y="142" width="85" height="26" rx="4" fill="#f59e0b" opacity="0.1" stroke="#f59e0b" stroke-width="0.5"/>
  <text x="662" y="159" text-anchor="middle" fill="#94a3b8" font-family="Inter,sans-serif" font-size="9">intermittent</text>

  <rect x="620" y="172" width="85" height="26" rx="4" fill="#f59e0b" opacity="0.1" stroke="#f59e0b" stroke-width="0.5"/>
  <text x="662" y="189" text-anchor="middle" fill="#94a3b8" font-family="Inter,sans-serif" font-size="9">nonlinear</text>

  <!-- Row 6: Baselines -->
  <rect x="380" y="215" width="110" height="45" rx="6" fill="#94a3b8" opacity="0.15" stroke="#94a3b8" stroke-width="1.5"/>
  <text x="435" y="233" text-anchor="middle" fill="#94a3b8" font-family="Inter,sans-serif" font-size="11" font-weight="700">Baselines</text>
  <text x="435" y="247" text-anchor="middle" fill="#64748b" font-family="Inter,sans-serif" font-size="9">benchmarks</text>

  <line x1="490" y1="237" x2="515" y2="225" stroke="#94a3b8" stroke-width="1" opacity="0.5"/>
  <line x1="490" y1="237" x2="515" y2="250" stroke="#94a3b8" stroke-width="1" opacity="0.5"/>

  <rect x="515" y="212" width="100" height="26" rx="4" fill="#1e293b" stroke="#94a3b8" stroke-width="0.5"/>
  <text x="565" y="229" text-anchor="middle" fill="#94a3b8" font-family="Inter,sans-serif" font-size="10">Naive / Mean</text>

  <rect x="515" y="242" width="100" height="26" rx="4" fill="#1e293b" stroke="#94a3b8" stroke-width="0.5"/>
  <text x="565" y="259" text-anchor="middle" fill="#94a3b8" font-family="Inter,sans-serif" font-size="10">SeasonalNaive</text>

  <!-- Bottom summary -->
  <rect x="40" y="290" width="720" height="110" rx="8" fill="#1e293b" opacity="0.5"/>
  <text x="400" y="315" text-anchor="middle" fill="#f1f5f9" font-family="Inter,sans-serif" font-size="13" font-weight="600">Why So Many Models?</text>
  <text x="400" y="340" text-anchor="middle" fill="#94a3b8" font-family="Inter,sans-serif" font-size="11">Each family specializes in different data patterns.</text>
  <text x="400" y="360" text-anchor="middle" fill="#94a3b8" font-family="Inter,sans-serif" font-size="11">Vectrix tests them all and picks the best — or combines them.</text>
  <text x="400" y="385" text-anchor="middle" fill="#6366f1" font-family="Inter,sans-serif" font-size="11" font-weight="600">One function call. 22 models evaluated. Best answer delivered.</text>
</svg>
