<svg xmlns="http://www.w3.org/2000/svg" viewBox="0 0 800 340" width="800" height="340" fill="none">
  <defs>
    <linearGradient id="rcbg" x1="0" y1="0" x2="1" y2="1">
      <stop offset="0%" stop-color="#0f172a"/>
      <stop offset="100%" stop-color="#1e293b"/>
    </linearGradient>
  </defs>
  <rect width="800" height="340" rx="12" fill="url(#rcbg)"/>
  <rect x="0.5" y="0.5" width="799" height="339" rx="12" stroke="#334155" stroke-width="1" fill="none"/>

  <!-- Title -->
  <text x="400" y="32" text-anchor="middle" font-family="Inter, system-ui, sans-serif" font-size="11" font-weight="600" fill="#64748b" letter-spacing="0.05em">LIBRARY STRENGTHS AT A GLANCE</text>

  <!-- Column headers -->
  <text x="275" y="62" text-anchor="middle" font-family="Inter, system-ui, sans-serif" font-size="9" font-weight="600" fill="#64748b">EASE</text>
  <text x="365" y="62" text-anchor="middle" font-family="Inter, system-ui, sans-serif" font-size="9" font-weight="600" fill="#64748b">SPEED</text>
  <text x="455" y="62" text-anchor="middle" font-family="Inter, system-ui, sans-serif" font-size="9" font-weight="600" fill="#64748b">ACCURACY</text>
  <text x="545" y="62" text-anchor="middle" font-family="Inter, system-ui, sans-serif" font-size="9" font-weight="600" fill="#64748b">MODELS</text>
  <text x="635" y="62" text-anchor="middle" font-family="Inter, system-ui, sans-serif" font-size="9" font-weight="600" fill="#64748b">INSTALL</text>
  <text x="725" y="62" text-anchor="middle" font-family="Inter, system-ui, sans-serif" font-size="9" font-weight="600" fill="#64748b">COMMUNITY</text>

  <!-- Row: statsmodels -->
  <text x="140" y="92" text-anchor="end" font-family="JetBrains Mono, monospace" font-size="10" font-weight="600" fill="#22d3ee">statsmodels</text>
  <rect x="245" y="80" width="24" height="14" rx="3" fill="rgba(245,158,11,0.15)"/><text x="257" y="91" text-anchor="middle" font-family="Inter, system-ui, sans-serif" font-size="9" font-weight="600" fill="#fbbf24">B</text>
  <rect x="335" y="80" width="24" height="14" rx="3" fill="rgba(239,68,68,0.15)"/><text x="347" y="91" text-anchor="middle" font-family="Inter, system-ui, sans-serif" font-size="9" font-weight="600" fill="#ef4444">D</text>
  <rect x="425" y="80" width="24" height="14" rx="3" fill="rgba(245,158,11,0.15)"/><text x="437" y="91" text-anchor="middle" font-family="Inter, system-ui, sans-serif" font-size="9" font-weight="600" fill="#fbbf24">B</text>
  <rect x="515" y="80" width="24" height="14" rx="3" fill="rgba(245,158,11,0.15)"/><text x="527" y="91" text-anchor="middle" font-family="Inter, system-ui, sans-serif" font-size="9" font-weight="600" fill="#fbbf24">B</text>
  <rect x="605" y="80" width="24" height="14" rx="3" fill="rgba(16,185,129,0.15)"/><text x="617" y="91" text-anchor="middle" font-family="Inter, system-ui, sans-serif" font-size="9" font-weight="600" fill="#10b981">A</text>
  <rect x="695" y="80" width="24" height="14" rx="3" fill="rgba(16,185,129,0.15)"/><text x="707" y="91" text-anchor="middle" font-family="Inter, system-ui, sans-serif" font-size="9" font-weight="600" fill="#10b981">A</text>

  <!-- Row: statsforecast -->
  <text x="140" y="122" text-anchor="end" font-family="JetBrains Mono, monospace" font-size="10" font-weight="600" fill="#22d3ee">statsforecast</text>
  <rect x="245" y="110" width="24" height="14" rx="3" fill="rgba(245,158,11,0.15)"/><text x="257" y="121" text-anchor="middle" font-family="Inter, system-ui, sans-serif" font-size="9" font-weight="600" fill="#fbbf24">B</text>
  <rect x="335" y="110" width="24" height="14" rx="3" fill="rgba(16,185,129,0.15)"/><text x="347" y="121" text-anchor="middle" font-family="Inter, system-ui, sans-serif" font-size="9" font-weight="600" fill="#10b981">A+</text>
  <rect x="425" y="110" width="24" height="14" rx="3" fill="rgba(16,185,129,0.15)"/><text x="437" y="121" text-anchor="middle" font-family="Inter, system-ui, sans-serif" font-size="9" font-weight="600" fill="#10b981">A</text>
  <rect x="515" y="110" width="24" height="14" rx="3" fill="rgba(245,158,11,0.15)"/><text x="527" y="121" text-anchor="middle" font-family="Inter, system-ui, sans-serif" font-size="9" font-weight="600" fill="#fbbf24">B</text>
  <rect x="605" y="110" width="24" height="14" rx="3" fill="rgba(16,185,129,0.15)"/><text x="617" y="121" text-anchor="middle" font-family="Inter, system-ui, sans-serif" font-size="9" font-weight="600" fill="#10b981">A</text>
  <rect x="695" y="110" width="24" height="14" rx="3" fill="rgba(245,158,11,0.15)"/><text x="707" y="121" text-anchor="middle" font-family="Inter, system-ui, sans-serif" font-size="9" font-weight="600" fill="#fbbf24">B</text>

  <!-- Row: Prophet -->
  <text x="140" y="152" text-anchor="end" font-family="JetBrains Mono, monospace" font-size="10" font-weight="600" fill="#22d3ee">Prophet</text>
  <rect x="245" y="140" width="24" height="14" rx="3" fill="rgba(16,185,129,0.15)"/><text x="257" y="151" text-anchor="middle" font-family="Inter, system-ui, sans-serif" font-size="9" font-weight="600" fill="#10b981">A</text>
  <rect x="335" y="140" width="24" height="14" rx="3" fill="rgba(239,68,68,0.15)"/><text x="347" y="151" text-anchor="middle" font-family="Inter, system-ui, sans-serif" font-size="9" font-weight="600" fill="#ef4444">D</text>
  <rect x="425" y="140" width="24" height="14" rx="3" fill="rgba(239,68,68,0.15)"/><text x="437" y="151" text-anchor="middle" font-family="Inter, system-ui, sans-serif" font-size="9" font-weight="600" fill="#ef4444">C</text>
  <rect x="515" y="140" width="24" height="14" rx="3" fill="rgba(239,68,68,0.15)"/><text x="527" y="151" text-anchor="middle" font-family="Inter, system-ui, sans-serif" font-size="9" font-weight="600" fill="#ef4444">D</text>
  <rect x="605" y="140" width="24" height="14" rx="3" fill="rgba(239,68,68,0.15)"/><text x="617" y="151" text-anchor="middle" font-family="Inter, system-ui, sans-serif" font-size="9" font-weight="600" fill="#ef4444">C</text>
  <rect x="695" y="140" width="24" height="14" rx="3" fill="rgba(16,185,129,0.15)"/><text x="707" y="151" text-anchor="middle" font-family="Inter, system-ui, sans-serif" font-size="9" font-weight="600" fill="#10b981">A+</text>

  <!-- Row: Darts -->
  <text x="140" y="182" text-anchor="end" font-family="JetBrains Mono, monospace" font-size="10" font-weight="600" fill="#a78bfa">Darts</text>
  <rect x="245" y="170" width="24" height="14" rx="3" fill="rgba(245,158,11,0.15)"/><text x="257" y="181" text-anchor="middle" font-family="Inter, system-ui, sans-serif" font-size="9" font-weight="600" fill="#fbbf24">B</text>
  <rect x="335" y="170" width="24" height="14" rx="3" fill="rgba(245,158,11,0.15)"/><text x="347" y="181" text-anchor="middle" font-family="Inter, system-ui, sans-serif" font-size="9" font-weight="600" fill="#fbbf24">B</text>
  <rect x="425" y="170" width="24" height="14" rx="3" fill="rgba(16,185,129,0.15)"/><text x="437" y="181" text-anchor="middle" font-family="Inter, system-ui, sans-serif" font-size="9" font-weight="600" fill="#10b981">A</text>
  <rect x="515" y="170" width="24" height="14" rx="3" fill="rgba(16,185,129,0.15)"/><text x="527" y="181" text-anchor="middle" font-family="Inter, system-ui, sans-serif" font-size="9" font-weight="600" fill="#10b981">A+</text>
  <rect x="605" y="170" width="24" height="14" rx="3" fill="rgba(239,68,68,0.15)"/><text x="617" y="181" text-anchor="middle" font-family="Inter, system-ui, sans-serif" font-size="9" font-weight="600" fill="#ef4444">C</text>
  <rect x="695" y="170" width="24" height="14" rx="3" fill="rgba(16,185,129,0.15)"/><text x="707" y="181" text-anchor="middle" font-family="Inter, system-ui, sans-serif" font-size="9" font-weight="600" fill="#10b981">A</text>

  <!-- Row: sktime -->
  <text x="140" y="212" text-anchor="end" font-family="JetBrains Mono, monospace" font-size="10" font-weight="600" fill="#a78bfa">sktime</text>
  <rect x="245" y="200" width="24" height="14" rx="3" fill="rgba(245,158,11,0.15)"/><text x="257" y="211" text-anchor="middle" font-family="Inter, system-ui, sans-serif" font-size="9" font-weight="600" fill="#fbbf24">B</text>
  <rect x="335" y="200" width="24" height="14" rx="3" fill="rgba(245,158,11,0.15)"/><text x="347" y="211" text-anchor="middle" font-family="Inter, system-ui, sans-serif" font-size="9" font-weight="600" fill="#fbbf24">B</text>
  <rect x="425" y="200" width="24" height="14" rx="3" fill="rgba(245,158,11,0.15)"/><text x="437" y="211" text-anchor="middle" font-family="Inter, system-ui, sans-serif" font-size="9" font-weight="600" fill="#fbbf24">B</text>
  <rect x="515" y="200" width="24" height="14" rx="3" fill="rgba(16,185,129,0.15)"/><text x="527" y="211" text-anchor="middle" font-family="Inter, system-ui, sans-serif" font-size="9" font-weight="600" fill="#10b981">A+</text>
  <rect x="605" y="200" width="24" height="14" rx="3" fill="rgba(245,158,11,0.15)"/><text x="617" y="211" text-anchor="middle" font-family="Inter, system-ui, sans-serif" font-size="9" font-weight="600" fill="#fbbf24">B</text>
  <rect x="695" y="200" width="24" height="14" rx="3" fill="rgba(16,185,129,0.15)"/><text x="707" y="211" text-anchor="middle" font-family="Inter, system-ui, sans-serif" font-size="9" font-weight="600" fill="#10b981">A</text>

  <!-- Row: NeuralForecast -->
  <text x="140" y="242" text-anchor="end" font-family="JetBrains Mono, monospace" font-size="10" font-weight="600" fill="#fbbf24">NeuralForecast</text>
  <rect x="245" y="230" width="24" height="14" rx="3" fill="rgba(245,158,11,0.15)"/><text x="257" y="241" text-anchor="middle" font-family="Inter, system-ui, sans-serif" font-size="9" font-weight="600" fill="#fbbf24">B</text>
  <rect x="335" y="230" width="24" height="14" rx="3" fill="rgba(245,158,11,0.15)"/><text x="347" y="241" text-anchor="middle" font-family="Inter, system-ui, sans-serif" font-size="9" font-weight="600" fill="#fbbf24">B</text>
  <rect x="425" y="230" width="24" height="14" rx="3" fill="rgba(16,185,129,0.15)"/><text x="437" y="241" text-anchor="middle" font-family="Inter, system-ui, sans-serif" font-size="9" font-weight="600" fill="#10b981">A</text>
  <rect x="515" y="230" width="24" height="14" rx="3" fill="rgba(16,185,129,0.15)"/><text x="527" y="241" text-anchor="middle" font-family="Inter, system-ui, sans-serif" font-size="9" font-weight="600" fill="#10b981">A+</text>
  <rect x="605" y="230" width="24" height="14" rx="3" fill="rgba(239,68,68,0.15)"/><text x="617" y="241" text-anchor="middle" font-family="Inter, system-ui, sans-serif" font-size="9" font-weight="600" fill="#ef4444">D</text>
  <rect x="695" y="230" width="24" height="14" rx="3" fill="rgba(245,158,11,0.15)"/><text x="707" y="241" text-anchor="middle" font-family="Inter, system-ui, sans-serif" font-size="9" font-weight="600" fill="#fbbf24">B</text>

  <!-- Row: Vectrix -->
  <text x="140" y="272" text-anchor="end" font-family="JetBrains Mono, monospace" font-size="10" font-weight="700" fill="#818cf8">Vectrix</text>
  <rect x="245" y="260" width="24" height="14" rx="3" fill="rgba(16,185,129,0.15)"/><text x="257" y="271" text-anchor="middle" font-family="Inter, system-ui, sans-serif" font-size="9" font-weight="600" fill="#10b981">A+</text>
  <rect x="335" y="260" width="24" height="14" rx="3" fill="rgba(16,185,129,0.15)"/><text x="347" y="271" text-anchor="middle" font-family="Inter, system-ui, sans-serif" font-size="9" font-weight="600" fill="#10b981">A</text>
  <rect x="425" y="260" width="24" height="14" rx="3" fill="rgba(16,185,129,0.15)"/><text x="437" y="271" text-anchor="middle" font-family="Inter, system-ui, sans-serif" font-size="9" font-weight="600" fill="#10b981">A</text>
  <rect x="515" y="260" width="24" height="14" rx="3" fill="rgba(16,185,129,0.15)"/><text x="527" y="271" text-anchor="middle" font-family="Inter, system-ui, sans-serif" font-size="9" font-weight="600" fill="#10b981">A</text>
  <rect x="605" y="260" width="24" height="14" rx="3" fill="rgba(16,185,129,0.15)"/><text x="617" y="271" text-anchor="middle" font-family="Inter, system-ui, sans-serif" font-size="9" font-weight="600" fill="#10b981">A+</text>
  <rect x="695" y="260" width="24" height="14" rx="3" fill="rgba(245,158,11,0.15)"/><text x="707" y="271" text-anchor="middle" font-family="Inter, system-ui, sans-serif" font-size="9" font-weight="600" fill="#fbbf24">B</text>

  <!-- Legend -->
  <rect x="180" y="296" width="14" height="14" rx="3" fill="rgba(16,185,129,0.15)"/>
  <text x="200" y="307" font-family="Inter, system-ui, sans-serif" font-size="9" fill="#64748b">Excellent</text>
  <rect x="300" y="296" width="14" height="14" rx="3" fill="rgba(245,158,11,0.15)"/>
  <text x="320" y="307" font-family="Inter, system-ui, sans-serif" font-size="9" fill="#64748b">Good</text>
  <rect x="400" y="296" width="14" height="14" rx="3" fill="rgba(239,68,68,0.15)"/>
  <text x="420" y="307" font-family="Inter, system-ui, sans-serif" font-size="9" fill="#64748b">Weak</text>
  <text x="550" y="307" font-family="Inter, system-ui, sans-serif" font-size="8" fill="#475569">Ratings reflect typical use cases, not absolute limits.</text>
</svg>